<?xml version="1.0" encoding="UTF-8" standalone="no"?>
<!-- Created with Inkscape (http://www.inkscape.org/) -->

<svg
   width="40.028774mm"
   height="40.972458mm"
   viewBox="0 0 40.028774 40.972458"
   version="1.1"
   id="svg1"
   sodipodi:docname="shapeman.svg"
   inkscape:version="1.4.2 (ebf0e940, 2025-05-08)"
   xmlns:inkscape="http://www.inkscape.org/namespaces/inkscape"
   xmlns:sodipodi="http://sodipodi.sourceforge.net/DTD/sodipodi-0.dtd"
   xmlns="http://www.w3.org/2000/svg"
   xmlns:svg="http://www.w3.org/2000/svg">
  <sodipodi:namedview
     id="namedview1"
     pagecolor="#ffffff"
     bordercolor="#000000"
     borderopacity="0.25"
     inkscape:showpageshadow="2"
     inkscape:pageopacity="0.0"
     inkscape:pagecheckerboard="0"
     inkscape:deskcolor="#d1d1d1"
     inkscape:document-units="mm"
     inkscape:zoom="2.7770186"
     inkscape:cx="60.136435"
     inkscape:cy="90.564751"
     inkscape:window-width="1680"
     inkscape:window-height="1050"
     inkscape:window-x="0"
     inkscape:window-y="0"
     inkscape:window-maximized="0"
     inkscape:current-layer="layer1" />
  <defs
     id="defs1">
    <inkscape:path-effect
       effect="simplify"
       id="path-effect3"
       is_visible="true"
       lpeversion="1.3"
       threshold="5"
       steps="1"
       smooth_angles="360"
       helper_size="10"
       simplify_individual_paths="false"
       simplify_just_coalesce="false" />
  </defs>
  <g
     inkscape:label="Layer 1"
     inkscape:groupmode="layer"
     id="layer1"
     transform="translate(-81.2601,-170.68805)">
    <path
       style="fill:#ffffff;stroke-width:1.32269;stroke-linejoin:round;paint-order:stroke markers fill"
       d="m 97.371027,3.5706901 c -9.611408,1.5399384 -19.574292,1.1535893 -29.074059,3.9773825 -3.603011,0.4033381 -7.18683,1.1402193 -10.364362,2.9793164 -3.590514,1.388337 -7.169164,2.834915 -10.458092,4.896627 -9.420955,5.300603 -16.570462,13.720185 -23.308789,21.991676 -4.19528,4.939254 -6.775221,10.904228 -9.390833,16.757775 -1.029389,1.30699 -1.82191,3.709651 0.236276,4.494819 1.941119,0.304073 3.953115,-0.609002 5.961852,-0.559132 1.994342,-0.11562 4.263533,-0.778522 5.744956,1.006822 3.078123,2.150171 4.659332,6.129172 4.431509,9.72524 -1.741354,3.546716 -4.337758,6.659792 -5.462935,10.489074 -0.292108,0.689128 -1.635558,2.515179 -1.636339,2.230315 0.0013,-2.573896 -3.058647,-2.755816 -4.874839,-1.998603 -3.95465,1.534492 -8.242813,0.610824 -12.2991961,1.396426 -2.9289166,1.181075 -2.6861099,4.977452 -3.2781451,7.577463 -0.6200063,4.395517 -0.8884705,8.972257 0.8733441,13.161949 2.1175161,6.94763 5.1929329,13.55788 7.1384361,20.56312 3.723388,9.88143 12.431013,16.98184 21.948798,20.99179 10.616667,4.67203 22.025115,8.45514 33.772545,7.93504 7.528573,-0.0678 14.966496,-0.76343 22.472661,-1.21129 6.933804,-0.93729 13.504995,-3.58942 20.004475,-6.06142 9.00215,-4.31609 15.65879,-12.01735 22.25735,-19.26628 4.39389,-5.77121 8.76092,-11.69054 11.22019,-18.59033 2.35341,-5.4601 4.5224,-11.102359 4.7592,-17.116013 0.2349,-4.201881 0.99941,-8.526342 0.16937,-12.692092 -1.28707,-2.693467 -4.70441,-1.028237 -6.8215,-0.55228 -2.91506,1.065553 -6.17182,0.70889 -9.01968,1.876254 -2.38991,1.412905 -0.73519,4.445775 1.04715,5.455144 0.47622,0.342766 1.35543,1.246374 1.08406,1.770989 -4.83284,-2.536279 -10.19372,-5.532713 -12.45367,-10.77427 -0.18398,-4.495715 -3.24485,-8.527231 -2.49484,-13.119415 1.17977,-2.801133 3.74489,-4.929302 6.29245,-6.496141 3.78199,-1.311515 8.00276,-0.206263 11.64439,1.085423 1.97947,1.480623 4.8748,-0.472723 4.13391,-2.865983 -1.03719,-4.023496 -3.0486,-7.730889 -4.59733,-11.571932 C 130.61457,27.098623 119.33581,15.939387 106.50843,7.7491496 103.6711,6.086027 100.83057,3.5919673 97.371027,3.5706901 Z M 76.959857,30.123255 c 1.780844,0.09229 4.067762,-0.14759 5.520077,0.187967 -1.867813,2.249338 -5.086151,0.539252 -7.464681,0.306899 -4.679797,-0.475779 -9.480016,0.104669 -14.042849,1.192737 -0.619671,0.137785 -2.84473,1.092265 -2.439781,0.639014 2.56702,-2.555316 6.358292,-2.22649 9.58724,-2.272188 2.94658,-0.02742 5.89325,-0.05685 8.839994,-0.05443 z m 18.346949,41.556437 c 1.521366,0.465518 0.06331,2.655238 -0.375252,3.469529 -0.863251,1.585625 -2.16762,3.076926 -4.153729,2.917932 -4.456299,0.317025 -8.901507,0.867611 -13.122149,2.423066 -4.382397,1.524876 -9.227176,2.065159 -13.646406,0.371147 -4.12812,-1.037139 -8.51668,0.679624 -12.588704,-0.138468 -1.611312,-1.158915 -4.167122,-2.800807 -3.240171,-5.139645 0.55882,-0.908442 0.895289,-0.287048 0.757335,0.481195 -0.147036,2.53903 3.252903,3.666249 4.734034,1.650011 0.616266,-0.602047 1.05329,-1.831861 2.109334,-1.117549 6.198282,2.46903 12.846075,5.205973 19.640844,3.646559 2.938824,-0.758847 6.190524,-1.031498 8.78492,-2.60998 1.373469,-1.163087 2.666436,-2.920707 4.151998,-3.698193 1.500259,1.449998 4.260666,3.424272 5.983504,1.210506 0.907217,-0.933831 0.178532,-2.663171 0.635668,-3.433301 0.107694,-0.0233 0.21846,-0.03689 0.328774,-0.03281 z m -74.236043,13.23288 c -0.328398,0.27909 0.62616,-0.604932 0,0 z m -1.919998,1.619249 c -1.911322,1.568946 -4.377133,2.743662 -6.903516,2.248769 2.490205,-0.432054 4.960279,-1.181533 7.158468,-2.448355 z m 47.257648,4.906963 c -0.09605,1.012509 0.224615,2.875202 -0.178399,3.431936 -0.798788,-1.041797 -0.08825,-2.65993 0.169514,-3.785312 l 0.0088,0.349849 z m 56.363457,0.392341 c 0.86474,0.764622 2.35638,2.561238 2.44152,3.088128 -1.03154,-0.757587 -2.11915,-1.988762 -2.44152,-3.088128 z M 70.379642,103.13443 c 3.700919,0.1326 7.274267,1.10366 10.869281,1.81542 1.305475,0.24282 3.78148,-0.0842 4.356049,0.31784 -5.803769,3.19639 -12.088512,6.43514 -18.869703,6.18805 -3.965668,0.60121 -6.981669,-2.81334 -10.682133,-3.30361 -1.661633,0.43667 -3.146911,2.0555 -4.810588,2.11754 -1.390963,-0.68833 -2.542441,-2.64587 -2.025942,-3.92954 4.795207,2.36839 9.77575,-0.75228 14.406475,-1.9405 2.217182,-0.53601 4.454776,-1.3027 6.756561,-1.2652 z m -3.056684,20.98875 c -0.684285,2.22954 -3.868792,2.20901 -5.775716,2.0232 -0.654373,0.0183 -2.037228,-0.32298 -0.961023,-0.78946 2.239866,-0.1149 4.865024,-1.23355 6.736739,-1.23374 z m -3.496871,10.69225 c 1.19537,1.1428 -2.54009,1.26513 -1.576873,0.31715 0.425944,-0.35762 1.058182,-0.31318 1.576873,-0.31715 z"
       id="path1"
       transform="matrix(0.26458333,0,0,0.26458333,81.2601,170.68805)"
       inkscape:label="main fill" />
    <path
       style="fill:#ffffff;stroke-width:0.661178;stroke-linejoin:round;paint-order:stroke markers fill"
       d="m 130.67219,55.065404 c -2.40232,0.01762 -5.1192,0.01033 -6.93698,1.84811 -2.51693,2.370875 -3.82553,6.193411 -2.91618,9.570605 0.98495,1.959431 2.81766,3.341438 4.26463,4.954147 1.69528,1.85439 3.67753,3.506342 6.12589,4.238719 3.1941,1.281196 6.57266,-0.08646 9.57777,-1.230766 2.28177,-0.68626 4.67439,-1.4962 6.21275,-3.437323 1.74557,-2.04494 0.62793,-4.839759 -0.0161,-7.090582 -0.86383,-2.385904 -1.46608,-4.971152 -2.96359,-7.054685 -1.52941,-1.252595 -3.73038,-0.88874 -5.52089,-1.27253 -2.58461,-0.446953 -5.2085,-0.551266 -7.82726,-0.525695 z m 3.291,8.811407 c -0.13362,0.735893 -0.21726,1.981308 -1.31373,1.698457 -0.86373,0.274413 -0.92942,-0.474237 -0.89895,-1.133329 0.0285,-0.629693 1.10714,-0.569551 1.56965,-0.749973 0.21907,0.03923 0.8792,-0.304045 0.64303,0.184845 z"
       id="path3"
       transform="matrix(0.26458333,0,0,0.26458333,81.2601,170.68805)"
       inkscape:label="right eye fill" />
    <path
       style="display:inline;fill:#ffffff;stroke-width:0.661178;stroke-linejoin:round;paint-order:stroke markers fill"
       d="m 21.434862,59.174023 c -2.337906,-0.0582 -4.649952,0.473916 -6.721052,1.556321 -1.513763,0.483754 -3.248675,0.820775 -4.172512,2.275884 -2.8341934,3.991106 -3.6147853,8.94896 -4.558602,13.63549 -0.195555,2.132707 2.0981872,3.431078 3.998942,3.252729 3.667762,-0.125479 7.313632,-0.655017 10.961761,-1.030386 2.464145,-0.147505 3.908445,-2.408892 5.43684,-4.044143 1.766687,-2.171292 3.924876,-4.528389 3.697586,-7.541068 -0.06185,-2.755525 -1.617962,-5.283125 -3.4837,-7.209985 -1.448262,-1.073588 -3.459567,-0.807632 -5.159263,-0.894842 z m -4.541861,10.104298 c 0.875376,-0.03359 0.270198,1.136792 0.06321,1.545046 -0.470119,0.01838 -1.624022,-0.0051 -1.144947,-0.692913 0.13975,-0.609444 0.444967,-0.886831 1.081737,-0.852133 z"
       id="path4"
       transform="matrix(0.26458333,0,0,0.26458333,81.2601,170.68805)"
       inkscape:label="left eye fill" />
    <path
       style="display:inline;fill:#ffffff;stroke-width:0.269893;stroke-linejoin:round;paint-order:stroke markers fill"
       d="m 69.49177,103.86352 c -1.721753,-0.004 -3.340662,0.67125 -5.033686,0.8911 -1.249649,0.20122 -2.692428,0.54382 -3.329405,1.7661 -0.780306,1.34104 -0.0679,3.1382 1.281877,3.79375 1.771145,0.89037 3.813325,0.57106 5.699908,0.34411 2.094173,-0.32634 4.154368,-0.4178 6.247054,-0.64187 1.470855,-0.10365 2.958055,-1.1085 3.20027,-2.63392 0.236543,-1.23976 -0.734926,-2.40053 -1.909558,-2.67988 -1.716742,-0.45417 -3.495766,-0.63606 -5.259384,-0.80982 -0.298565,-0.0201 -0.597803,-0.0315 -0.897076,-0.0296 z"
       id="path5"
       transform="matrix(0.26458333,0,0,0.26458333,81.2601,170.68805)"
       inkscape:label="lip fill" />
    <path
       style="fill:#000000"
       d="m 96.837488,292.57163 c -0.34,-0.0359 -0.702532,-0.005 -1.016166,-0.1429 -0.411773,-0.18046 -0.85274,-0.27931 -1.280229,-0.41625 -0.63659,-0.20393 -1.25016,-0.47286 -1.900845,-0.63854 -0.64662,-0.16463 -1.247011,-0.46473 -1.847247,-0.74841 -0.545196,-0.25767 -1.081595,-0.53575 -1.637083,-0.77031 -0.188385,-0.0795 -0.358277,-0.19949 -0.528098,-0.31273 -0.48602,-0.32411 -0.989767,-0.62913 -1.430151,-1.0136 -0.420661,-0.36725 -0.871991,-0.7031 -1.253401,-1.11224 -0.39704,-0.4259 -0.664899,-0.94864 -0.948821,-1.45152 -0.371973,-0.65884 -0.783994,-1.30267 -1.054473,-2.01069 -0.06077,-0.15906 -0.08101,-0.32907 -0.125508,-0.49354 -0.147458,-0.54503 -0.385854,-1.05798 -0.610995,-1.57395 -0.126724,-0.29043 -0.370304,-0.57836 -0.324659,-0.89463 0.01784,-0.12364 0.0085,-0.24951 -0.02535,-0.37205 -0.158663,-0.5751 -0.381752,-1.12979 -0.596374,-1.68564 -0.109244,-0.28292 -0.328264,-0.54549 -0.32773,-0.84878 0.0014,-0.81143 -0.0096,-1.62299 0.006,-2.43431 0.0076,-0.39741 0.07108,-0.7905 0.183376,-1.17455 0.15237,-0.52111 0.199793,-1.06488 0.244896,-1.60415 0.03061,-0.36599 0.123329,-0.72389 0.266147,-1.06464 0.169258,-0.40383 0.260399,-0.83367 0.373145,-1.25572 0.224998,-0.84227 0.517753,-1.66526 0.839144,-2.47508 0.184345,-0.4645 0.393534,-0.91892 0.640383,-1.35435 0.343284,-0.60553 0.696285,-1.20565 1.013493,-1.82577 0.246672,-0.48223 0.452469,-0.98405 0.704174,-1.46394 0.334324,-0.6374 0.658496,-1.29445 1.131717,-1.83931 0.313339,-0.36078 0.642538,-0.70769 0.9678,-1.05776 0.345941,-0.37233 0.693144,-0.74971 0.968116,-1.17831 0.302892,-0.47212 0.68641,-0.88638 1.074554,-1.28853 0.65762,-0.68136 1.359298,-1.31949 2.085979,-1.92629 0.453166,-0.37841 0.967636,-0.6728 1.491691,-0.94076 0.499362,-0.25533 0.976266,-0.55117 1.46094,-0.83329 0.280491,-0.16327 0.583091,-0.28162 0.89019,-0.38652 0.675362,-0.23069 1.337138,-0.4985 2.009168,-0.73828 0.664399,-0.23705 1.362526,-0.35633 2.059816,-0.44724 0.80372,-0.10478 1.58508,-0.33567 2.3841,-0.46589 0.41028,-0.0669 0.82731,-0.0535 1.24111,-0.0757 1.0521,-0.0564 2.08857,-0.2594 3.12552,-0.43812 0.4125,-0.0711 0.83166,-0.14516 1.2547,-0.0796 0.44749,0.0694 0.82056,0.3481 1.1677,0.62062 0.31483,0.24716 0.6458,0.47236 0.96816,0.70937 0.40979,0.3013 0.80761,0.6183 1.22241,0.9131 0.38505,0.27367 0.77888,0.53589 1.13908,0.84308 0.83295,0.71038 1.6056,1.48744 2.40233,2.2374 0.49506,0.46599 0.91749,1.00267 1.30696,1.55899 0.27739,0.39621 0.58939,0.7672 0.86473,1.16457 0.4641,0.66982 0.87078,1.37897 1.23147,2.10897 0.19402,0.39268 0.36572,0.79608 0.4934,1.21731 0.061,0.20124 0.14686,0.39285 0.24103,0.5816 0.10124,0.20292 0.13191,0.42891 0.2217,0.63685 0.40118,0.9291 1.04509,1.751 1.34987,2.71557 0.19877,0.62905 0.5169,1.21635 0.66945,1.8607 0.1585,0.66951 0.23688,1.3557 0.28029,2.04084 0.0612,0.96595 0.0621,1.93514 0.0332,2.90207 -0.0193,0.64496 0.0142,1.29921 -0.11015,1.93302 -0.0827,0.42182 -0.15108,0.84641 -0.22622,1.26979 -0.13228,0.74526 -0.43473,1.44658 -0.75387,2.12698 -0.18749,0.39973 -0.33941,0.8144 -0.47384,1.23539 -0.11957,0.37447 -0.31244,0.71996 -0.52321,1.05113 -0.27348,0.42971 -0.50076,0.88672 -0.76736,1.32032 -0.13517,0.21984 -0.29353,0.42313 -0.45122,0.6291 -0.29247,0.38202 -0.49367,0.82211 -0.74737,1.22874 -0.48727,0.78098 -1.13225,1.44513 -1.76187,2.10997 -0.56135,0.59274 -1.10537,1.21027 -1.74765,1.71643 -0.3181,0.25068 -0.65175,0.48082 -0.97374,0.72659 -0.3581,0.27333 -0.69914,0.60831 -1.13627,0.73357 -0.32284,0.0925 -0.58909,0.30656 -0.8683,0.48545 -0.54156,0.34697 -1.14409,0.5847 -1.74734,0.79992 -0.83235,0.29694 -1.68003,0.55002 -2.53384,0.77744 -1.05919,0.28212 -2.15751,0.35099 -3.24639,0.41778 -0.90941,0.0558 -1.81522,0.15817 -2.72408,0.22261 -0.95974,0.068 -1.923468,0.0607 -2.884321,0.0254 -0.475112,-0.0175 -0.950505,-0.0429 -1.423731,-0.0869 z m 6.068602,-1.47233 c 0.35171,-0.0444 0.70967,-0.14992 1.06018,-0.0922 0.22566,0.0372 0.45683,0.011 0.68352,-0.006 0.6666,-0.0488 1.33311,-0.11014 1.99414,-0.21098 0.33907,-0.0517 0.66396,-0.16377 0.98151,-0.2921 0.42559,-0.17199 0.86493,-0.30534 1.30092,-0.44788 0.53138,-0.17373 1.05461,-0.37135 1.589,-0.53632 0.37252,-0.11501 0.72335,-0.29791 1.02551,-0.55157 0.272,-0.22836 0.5825,-0.40185 0.88288,-0.58902 0.84917,-0.52914 1.54913,-1.2543 2.2345,-1.97451 0.47809,-0.5024 0.97782,-0.9846 1.44142,-1.50036 0.38571,-0.42911 0.73996,-0.88655 1.05043,-1.37481 0.29259,-0.46014 0.64194,-0.88014 0.96294,-1.32042 0.21787,-0.29883 0.44835,-0.59866 0.58382,-0.94475 0.37878,-0.96762 0.83058,-1.90519 1.21322,-2.87117 0.2966,-0.74875 0.53582,-1.52701 0.63963,-2.32621 0.10262,-0.78998 0.1435,-1.58651 0.17388,-2.38186 0.0156,-0.40744 0.0794,-0.81543 0.0518,-1.22231 -0.0117,-0.1718 -0.005,-0.38927 -0.15325,-0.4978 -0.11601,-0.0847 -0.26382,-0.0128 -0.38487,0.019 -0.56116,0.14728 -1.10357,0.35955 -1.67847,0.45882 -0.43958,0.0759 -0.88401,0.12528 -1.32923,0.12033 -0.17245,-0.002 -0.19093,0.17932 -0.15821,0.3131 0.0501,0.20497 0.2536,0.31238 0.42136,0.40982 0.21781,0.12651 0.44477,0.29949 0.48772,0.56556 0.0374,0.23162 0.0297,0.47185 -0.0171,0.70231 -0.0266,0.13077 -0.1428,0.24689 -0.28615,0.22032 -0.27787,-0.0515 -0.50058,-0.24126 -0.73306,-0.38838 -0.49801,-0.31517 -1.02946,-0.57633 -1.51904,-0.90411 -0.45996,-0.30793 -0.85368,-0.71066 -1.17734,-1.15682 -0.27132,-0.37401 -0.55625,-0.79349 -0.55053,-1.26806 0.004,-0.29161 -0.0238,-0.59222 -0.15752,-0.85464 -0.13814,-0.27104 -0.2557,-0.55317 -0.32918,-0.84924 -0.13269,-0.53465 -0.1954,-1.09526 -0.11875,-1.6443 0.0283,-0.20239 0.11681,-0.38956 0.24196,-0.55119 0.3577,-0.46198 0.7909,-0.86204 1.25345,-1.21764 0.25707,-0.19763 0.55134,-0.34527 0.86754,-0.42236 0.67259,-0.16399 1.37824,-0.0595 2.03522,0.14333 0.23179,0.0716 0.46972,0.11893 0.70985,0.15799 0.14784,0.024 0.26968,0.11147 0.3888,0.1948 0.0937,0.0655 0.27666,0.10984 0.32242,-0.0299 0.0671,-0.20487 0.005,-0.42498 -0.0539,-0.62364 -0.12156,-0.40711 -0.33589,-0.77649 -0.52294,-1.15591 -0.15579,-0.31601 -0.2532,-0.65566 -0.3728,-0.98627 -0.16491,-0.45588 -0.3986,-0.88206 -0.64137,-1.3006 -0.18383,-0.31693 -0.33189,-0.65376 -0.52043,-0.96762 -0.38318,-0.63792 -0.835,-1.23137 -1.28489,-1.8231 -0.41918,-0.55134 -0.88077,-1.06915 -1.37274,-1.55643 -0.87139,-0.86306 -1.78888,-1.68368 -2.77784,-2.40996 -0.33077,-0.24291 -0.6829,-0.45384 -1.03938,-0.65831 -0.57851,-0.33181 -1.07805,-0.78619 -1.67399,-1.08935 -0.35568,-0.18093 -0.77093,-0.38034 -1.16552,-0.2539 -0.13803,0.0442 -0.27749,0.08 -0.42231,0.0985 -1.23159,0.15716 -2.47284,0.20879 -3.70936,0.31424 -0.31154,0.0266 -0.62099,0.0696 -0.92915,0.12288 -0.40413,0.0699 -0.81455,0.10021 -1.21679,0.17993 -0.28629,0.0568 -0.55999,0.15667 -0.83379,0.26282 -0.4882,0.18928 -1.02545,0.10756 -1.529453,0.2112 -0.427363,0.0879 -0.808178,0.3127 -1.199424,0.49561 -0.342746,0.16024 -0.670543,0.40929 -1.048997,0.43636 -0.325018,0.0233 -0.582807,0.24171 -0.857837,0.39106 -0.313371,0.17017 -0.652048,0.28324 -0.966705,0.45244 -0.389448,0.20941 -0.7359,0.486 -1.103117,0.7303 -0.268897,0.17888 -0.538201,0.35713 -0.786784,0.56471 -0.6494,0.54231 -1.273735,1.11567 -1.862078,1.72368 -0.172834,0.17861 -0.331195,0.36986 -0.474667,0.57372 -0.229876,0.32662 -0.525214,0.59713 -0.785304,0.89845 -0.615467,0.71305 -1.208635,1.44545 -1.781264,2.1935 -0.106603,0.13926 -0.193762,0.29029 -0.272211,0.44763 -0.181098,0.36323 -0.404369,0.70242 -0.58175,1.06828 -0.206471,0.42586 -0.371235,0.86919 -0.564891,1.30123 -0.160711,0.35854 -0.293126,0.74092 -0.539536,1.04629 -0.08796,0.109 -0.03014,0.16104 0.107305,0.12892 0.47805,-0.11173 0.967135,-0.17254 1.455775,-0.21173 0.331681,-0.0266 0.669326,-0.0849 0.998814,-0.031 0.266612,0.0437 0.465671,0.24358 0.66177,0.41161 0.26287,0.22524 0.594296,0.40376 0.760417,0.70837 0.113024,0.20724 0.272093,0.3895 0.36321,0.60736 0.195966,0.46856 0.290942,0.97486 0.307111,1.47731 0.0021,0.0638 0.02838,0.126 -0.0034,0.18989 -0.244028,0.4913 -0.501463,0.97559 -0.772759,1.4526 -0.210487,0.3701 -0.570955,0.70339 -0.597038,1.1306 -0.01565,0.25633 -0.15442,0.48349 -0.297985,0.68799 -0.408526,0.58194 -0.910666,1.09437 -1.453632,1.55091 -0.393937,0.33123 -0.814853,0.64237 -1.288949,0.84552 -0.297786,0.12759 -0.630674,0.11799 -0.945698,0.0941 -0.246182,-0.0187 -0.536097,-0.0164 -0.718676,-0.20143 -0.132023,-0.13379 -0.165925,-0.3581 -0.09012,-0.5229 0.08964,-0.19485 0.329243,-0.21595 0.517314,-0.2461 0.475365,-0.0762 0.954172,-0.17623 1.3944,-0.3723 0.128652,-0.0573 0.283407,-0.0547 0.400647,-0.13016 0.245297,-0.15796 0.338463,-0.57724 0.636654,-0.58376 0.129428,-0.003 0.253748,-0.0707 0.320971,-0.1847 0.05674,-0.0962 0.100241,-0.28277 -0.03152,-0.32222 -0.133949,-0.0401 -0.277594,-0.004 -0.411727,0.0192 -0.420656,0.0718 -0.833155,0.18494 -1.235559,0.32865 -0.440528,0.15732 -0.914981,0.10576 -1.371403,0.0556 -0.276274,-0.0304 -0.565565,-0.1016 -0.836883,-0.0163 -0.226036,0.071 -0.312254,0.31706 -0.357155,0.52637 -0.101182,0.47167 -0.163406,0.9509 -0.220827,1.4295 -0.06856,0.57145 -0.149794,1.1483 -0.09927,1.72487 0.02707,0.30897 0.14972,0.59626 0.256435,0.88473 0.315668,0.85333 0.459094,1.76617 0.831406,2.59725 0.262935,0.58693 0.528443,1.17461 0.735134,1.78428 0.04851,0.14311 0.04281,0.29534 0.07795,0.44251 0.118128,0.49469 0.299839,0.97139 0.476493,1.44848 0.04886,0.13196 0.140283,0.23741 0.225185,0.34697 0.195924,0.25282 0.321034,0.54921 0.498738,0.81423 0.197837,0.29504 0.386613,0.59819 0.612637,0.87217 0.377419,0.4575 0.835541,0.84105 1.306151,1.19844 0.524245,0.39813 1.08121,0.75393 1.673773,1.04404 0.396743,0.19423 0.777708,0.4186 1.171948,0.61745 0.234072,0.11806 0.480417,0.20664 0.729046,0.29045 0.846563,0.28538 1.677914,0.61323 2.51497,0.92483 0.682281,0.25399 1.399346,0.39406 2.11611,0.50882 0.348447,0.0558 0.692119,0.14731 1.043606,0.17795 0.739282,0.0644 1.482542,0.0681 2.223995,0.0626 0.985386,-0.007 1.973246,-0.007 2.954746,-0.10053 0.0822,-0.008 0.16477,-0.0164 0.2462,-0.0279 z m -4.732154,-3.03158 c -0.1306,-0.0226 -0.327114,-0.005 -0.378738,-0.14268 -0.05565,-0.1487 0.0093,-0.30887 0.04955,-0.45324 0.05574,-0.20017 0.148232,-0.42974 0.36718,-0.49479 0.247498,-0.0735 0.510775,-0.047 0.765761,-0.0444 0.145979,0.002 0.295464,0.071 0.343314,0.22373 0.07928,0.25311 0.0893,0.54283 -0.0188,0.78689 -0.07399,0.16704 -0.282935,0.17591 -0.440616,0.17612 -0.230132,3e-4 -0.459279,-0.0258 -0.687651,-0.0517 z m -0.543729,-2.63045 c -0.12742,-0.0666 -0.328981,-0.0896 -0.365609,-0.23622 -0.03228,-0.12925 0.0252,-0.26178 0.07346,-0.37996 0.07951,-0.19473 0.240267,-0.38095 0.472965,-0.39827 0.425175,-0.0316 0.844565,-0.12886 1.248766,-0.25937 0.334868,-0.10812 0.684556,-0.17136 1.038454,-0.17136 0.0483,0 0.14626,-0.0483 0.14504,0 -0.007,0.26133 0.0245,0.5274 -0.0344,0.78407 -0.0637,0.27774 -0.317518,0.44168 -0.538676,0.58885 -0.322063,0.21434 -0.723006,0.20692 -1.093554,0.22873 -0.298845,0.0176 -0.603281,-0.009 -0.883195,-0.12859 -0.02117,-0.009 -0.04223,-0.0184 -0.06321,-0.0279 z m 0.611416,-3.97949 c -0.386653,-0.16905 -0.74906,-0.38865 -1.134713,-0.56007 -0.112495,-0.05 -0.229346,-0.1174 -0.362306,-0.059 -0.389454,0.17111 -0.719094,0.50065 -1.145612,0.56054 -0.181449,0.0255 -0.348512,-0.087 -0.484213,-0.19188 -0.249744,-0.19302 -0.524393,-0.41191 -0.614254,-0.71997 -0.09257,-0.31735 -0.113101,-0.65247 -0.105172,-0.98333 0.0037,-0.15331 0.127793,-0.28921 0.278382,-0.29774 0.179778,-0.0102 0.307854,0.13611 0.453056,0.21868 0.440958,0.25078 0.97502,0.23958 1.459163,0.13541 0.434464,-0.0935 0.832641,-0.29664 1.247004,-0.44963 0.670213,-0.24747 1.373641,-0.38591 2.066185,-0.55496 0.326927,-0.0798 0.665907,-0.0583 0.996637,-0.014 0.53918,0.0722 1.08149,0.11988 1.62029,0.19726 0.1712,0.0246 0.31205,0.13359 0.47065,0.19451 0.27997,0.10753 0.58702,0.0925 0.88163,0.0993 0.36673,0.009 0.73385,0.005 1.10071,0.0299 0.14326,0.01 0.23121,0.12969 0.3004,0.24512 0.0751,0.12529 0.0331,0.28391 -0.0684,0.38221 -0.24126,0.23343 -0.54826,0.38193 -0.84355,0.53383 -0.3949,0.20315 -0.81014,0.37541 -1.17399,0.63056 -0.21008,0.14732 -0.45856,0.22746 -0.6994,0.30869 -0.89104,0.30053 -1.81393,0.52957 -2.755587,0.58394 -0.464577,0.0268 -0.929765,-0.063 -1.361405,-0.23673 -0.042,-0.0169 -0.08426,-0.0352 -0.125455,-0.0527 z m 1.829207,-1.01061 c 0.42762,-0.0704 0.86167,-0.0824 1.29315,-0.11849 0.2052,-0.0172 0.47996,-0.0331 0.56572,-0.24477 0.0621,-0.15318 -0.16352,-0.18775 -0.26885,-0.20851 -0.40055,-0.0789 -0.80713,-0.12534 -1.21321,-0.1658 -0.24978,-0.0249 -0.496983,0.0282 -0.73603,0.10137 -0.267914,0.082 -0.548305,0.10637 -0.822754,0.16092 -0.142022,0.0282 -0.351544,0.0819 -0.358984,0.24479 -0.0075,0.16515 0.173426,0.25976 0.313062,0.28728 0.371333,0.0732 0.753102,0.0189 1.122466,-0.0395 0.03517,-0.006 0.07037,-0.0113 0.10543,-0.0173 z m -13.606869,-2.03486 c -0.120582,-0.0138 -0.262987,-0.0991 -0.243547,-0.2372 0.03521,-0.2501 0.201115,-0.45821 0.366518,-0.63795 0.236676,-0.25718 0.492325,-0.50323 0.789654,-0.69107 0.129739,-0.082 0.304983,-0.0292 0.385921,0.0973 0.0919,0.14357 0.171992,0.33086 0.117495,0.49583 -0.06919,0.20944 -0.229756,0.37201 -0.380516,0.52522 -0.170112,0.17288 -0.318789,0.40377 -0.561891,0.47017 -0.155895,0.0426 -0.31866,0.005 -0.473634,-0.0223 z m 28.511859,-1.06006 c -0.28831,-0.17318 -0.54588,-0.40225 -0.75069,-0.66769 -0.19184,-0.24863 -0.36268,-0.55048 -0.33392,-0.87631 0.0216,-0.24516 0.28147,-0.46308 0.5114,-0.39682 0.18533,0.0534 0.31185,0.21439 0.43891,0.34909 0.36581,0.3878 0.73247,0.8059 0.91172,1.30872 0.0414,0.11604 0.16355,0.27338 0.0735,0.37277 -0.0975,0.10754 -0.26365,0.0892 -0.39309,0.0676 -0.15989,-0.0266 -0.3146,-0.0822 -0.45779,-0.15738 z m -15.66707,-0.0588 c -0.201034,-0.10707 -0.383596,-0.28672 -0.41608,-0.52486 -0.05261,-0.3857 0.005,-0.78604 0.148353,-1.14436 0.07098,-0.17744 0.131907,-0.40695 0.317318,-0.48059 0.139973,-0.0556 0.290429,0.0294 0.414951,0.0917 0.118912,0.0595 0.180513,0.18419 0.191181,0.3143 0.0319,0.38907 0.03874,0.78088 0.01775,1.17034 -0.0108,0.20043 0.05492,0.43656 -0.06489,0.60168 -0.08043,0.11085 -0.251771,0.12858 -0.376398,0.0793 -0.07936,-0.0314 -0.15559,-0.0701 -0.232186,-0.10754 z m 0.417191,-3.44919 c -0.436738,-0.0883 -0.842632,-0.29136 -1.286319,-0.3517 -0.397953,-0.0541 -0.820688,-0.0953 -1.201942,0.044 -0.292362,0.1068 -0.610286,0.11566 -0.917463,0.1067 -0.306497,-0.009 -0.637381,0.0228 -0.913703,-0.11631 -0.269119,-0.13545 -0.509313,-0.3246 -0.728282,-0.52935 -0.214907,-0.20096 -0.468151,-0.40993 -0.517732,-0.71803 -0.04583,-0.28476 -0.08194,-0.61994 0.113582,-0.85808 0.140893,-0.17161 0.330738,-0.30419 0.534323,-0.38726 0.197228,-0.0805 0.397042,0.0924 0.459308,0.2781 0.07197,0.21467 0.08486,0.44098 0.10356,0.66413 0.01435,0.17122 0.197667,0.19072 0.325451,0.0921 0.206866,-0.15968 0.28884,-0.43135 0.487773,-0.59463 0.123201,-0.10111 0.295201,-0.0558 0.43339,-0.0217 0.415693,0.10234 0.797827,0.30019 1.190077,0.46608 0.231316,0.0978 0.469773,0.17589 0.714889,0.2348 0.41047,0.0986 0.805361,0.25282 1.215612,0.35106 0.696955,0.16689 1.436235,0.16361 2.131685,-0.0383 0.52327,-0.15194 1.06644,-0.22882 1.58599,-0.39178 0.19843,-0.0622 0.4331,-0.10027 0.56795,-0.26979 0.29035,-0.36501 0.62176,-0.70189 1.00021,-0.97488 0.10261,-0.074 0.22334,-0.14207 0.36071,-0.075 0.28985,0.14162 0.46,0.43788 0.74679,0.58509 0.11962,0.0614 0.31001,0.12971 0.40072,0.002 0.0793,-0.11184 0.0443,-0.25991 0.0259,-0.38554 -0.0265,-0.1819 -0.12917,-0.40173 1e-4,-0.55789 0.11814,-0.14271 0.31477,-0.18532 0.48852,-0.21349 0.27622,-0.0448 0.57224,0.0963 0.69472,0.35441 0.13614,0.28696 0.0773,0.624 -0.059,0.90183 -0.18702,0.38134 -0.42629,0.73688 -0.7012,1.06174 -0.15946,0.18842 -0.4105,0.24986 -0.63908,0.3054 -0.51566,0.12528 -1.04874,0.13862 -1.57722,0.15106 -0.71472,0.0168 -1.38981,0.27803 -2.06728,0.4772 -0.3887,0.11428 -0.76827,0.26449 -1.1648,0.3477 -0.53637,0.11254 -1.092,0.14567 -1.636314,0.0843 -0.05717,-0.006 -0.114383,-0.0141 -0.170985,-0.0238 z m -2.996232,-13.08768 c -0.09584,-0.0782 -0.258667,-0.2132 -0.163199,-0.34497 0.163851,-0.22615 0.404536,-0.3811 0.635109,-0.53205 0.425535,-0.27858 0.853906,-0.67722 1.360318,-0.6764 1.547783,0.003 3.095883,-0.0225 4.643333,0.0111 0.31474,0.007 0.74929,-0.21908 0.9442,0.0283 0.072,0.0914 0.0765,0.24142 0.10303,0.36104 0.0278,0.1251 0.0472,0.27552 -0.0545,0.37569 -0.18635,0.18351 -0.38228,0.36447 -0.61109,0.49013 -0.0386,0.0212 -0.0693,0.0776 -0.11293,0.0734 -0.52335,-0.0504 -1.06619,-0.036 -1.562,-0.22205 -0.31347,-0.11761 -0.65683,-0.1049 -0.98484,-0.0841 -0.67931,0.0431 -1.360208,0.0728 -2.036695,0.15264 -0.280708,0.0331 -0.543321,0.13936 -0.804343,0.24524 -0.355127,0.14405 -0.744444,0.28255 -1.12953,0.21172 -0.08033,-0.0148 -0.160254,-0.0415 -0.226883,-0.0897 z M 85.628564,272.2595 c 0.502594,-0.0733 1.012577,-0.077 1.515995,-0.14094 0.214712,-0.0273 0.459853,-0.0121 0.635347,-0.14378 0.267588,-0.20084 0.486433,-0.45868 0.697556,-0.71594 0.26681,-0.32511 0.528544,-0.65614 0.757623,-1.00936 0.169141,-0.2608 0.152239,-0.58322 0.137693,-0.87975 -0.01806,-0.36821 -0.206271,-0.69805 -0.413356,-0.98952 -0.106153,-0.1494 -0.179394,-0.36081 -0.353941,-0.42427 -0.206947,-0.0752 -0.432956,-0.0763 -0.650594,-0.0781 -0.434089,-0.004 -0.876599,-0.0123 -1.299261,0.0919 -0.222216,0.0548 -0.426211,0.1606 -0.624329,0.27693 -0.158155,0.0929 -0.340661,0.1207 -0.522558,0.14485 -0.235679,0.0313 -0.375304,0.25142 -0.494576,0.43244 -0.384617,0.58372 -0.587591,1.26222 -0.735955,1.93984 -0.08612,0.39334 -0.149274,0.79312 -0.267438,1.17802 -0.04323,0.14081 0.01874,0.29895 0.168587,0.34547 0.2874,0.0892 0.595523,0.0643 0.890505,0.0389 0.186883,-0.0161 0.373298,-0.0392 0.558702,-0.0667 z m 0.220762,-1.40725 c -0.129045,-0.0498 -0.32042,-0.10037 -0.325207,-0.26228 -0.0061,-0.20492 0.08027,-0.39819 0.143298,-0.58949 0.05622,-0.17062 0.168638,-0.32952 0.346995,-0.39362 0.206227,-0.0741 0.445061,-0.14295 0.652555,-0.0279 0.188623,0.10463 0.382926,0.27557 0.376655,0.51021 -0.006,0.2244 -0.09013,0.44242 -0.201359,0.63471 -0.09859,0.17045 -0.296896,0.2555 -0.491541,0.24576 -0.172489,-0.009 -0.339748,-0.0599 -0.501396,-0.11743 z m 32.619314,0.29131 c 0.39678,-0.17706 0.81006,-0.31385 1.22786,-0.43263 0.2805,-0.0798 0.5013,-0.27647 0.70529,-0.48158 0.11349,-0.11412 0.18701,-0.26628 0.17618,-0.43367 -0.0272,-0.42044 -0.16262,-0.82373 -0.29522,-1.21997 -0.15559,-0.46493 -0.33521,-0.92156 -0.51694,-1.37781 -0.0591,-0.14844 -0.23777,-0.17594 -0.37583,-0.18397 -0.25644,-0.0149 -0.5166,-0.009 -0.76807,-0.0664 -0.50013,-0.11442 -1.01458,-0.14884 -1.52576,-0.16263 -0.48111,-0.013 -0.9649,-0.0232 -1.44455,0.0347 -0.265,0.032 -0.50383,0.16771 -0.69523,0.35188 -0.45002,0.43303 -0.63929,1.0655 -0.65585,1.69138 -0.005,0.19259 0.0846,0.37012 0.21317,0.5093 0.34179,0.37002 0.68463,0.73942 1.03662,1.09979 0.4746,0.48592 1.10457,0.85757 1.79619,0.89576 0.38543,0.0213 0.77224,-0.0644 1.12214,-0.2242 z m -1.92931,-1.6617 c -0.13371,-0.0534 -0.20615,-0.18832 -0.2233,-0.32745 -0.03,-0.24365 -0.0837,-0.51756 0.0345,-0.73582 0.0776,-0.14319 0.24675,-0.19979 0.39162,-0.24869 0.33906,-0.11444 0.71169,-0.22324 1.05418,-0.12893 0.0359,0.01 0.12276,-0.0215 0.12226,0.0152 -0.005,0.36068 -0.003,0.7294 -0.14098,1.07139 -0.076,0.18878 -0.22435,0.34869 -0.42712,0.40908 -0.2643,0.0787 -0.562,0.0661 -0.81121,-0.0547 z"
       id="path2"
       inkscape:label="lines"
       inkscape:path-effect="#path-effect3"
       inkscape:original-d="m 96.837488,292.57163 c -0.521646,-0.0493 -0.997482,-0.12064 -1.057413,-0.15859 -0.05993,-0.038 -0.377824,-0.14351 -0.706431,-0.23458 -0.328606,-0.0911 -0.89815,-0.28501 -1.265653,-0.43099 -0.367502,-0.14599 -0.825611,-0.2987 -1.018018,-0.33935 -0.536055,-0.11327 -1.002814,-0.30238 -2.354617,-0.95398 -0.683385,-0.3294 -1.259132,-0.59892 -1.279438,-0.59892 -0.09609,0 -1.590151,-1.01194 -1.958249,-1.32633 -1.57093,-1.34175 -1.349525,-1.06875 -2.489557,-3.0698 -0.418388,-0.73438 -0.782627,-1.47158 -0.80942,-1.63823 -0.05063,-0.3149 -0.236506,-0.89171 -0.431058,-1.33766 -0.06207,-0.14227 -0.229974,-0.52202 -0.373129,-0.8439 -0.143156,-0.32187 -0.238638,-0.64163 -0.212183,-0.71057 0.05442,-0.14182 -0.09662,-0.62762 -0.6024,-1.93754 l -0.349567,-0.90534 -0.0021,-1.50889 c -0.0018,-1.31058 0.02208,-1.58255 0.181672,-2.06934 0.104327,-0.31822 0.2057,-0.91116 0.234548,-1.37191 0.0376,-0.60045 0.106218,-0.9325 0.263882,-1.27688 0.117191,-0.25598 0.271811,-0.74443 0.343601,-1.08543 0.180067,-0.85534 0.913977,-2.89088 1.327142,-3.68091 0.0868,-0.16598 0.382891,-0.68748 0.657976,-1.15888 0.275085,-0.47141 0.648216,-1.18921 0.82918,-1.59512 0.526661,-1.18131 1.227912,-2.38288 1.67599,-2.87174 0.228335,-0.24912 0.678737,-0.73704 1.000894,-1.08425 0.322157,-0.34722 0.693664,-0.80827 0.825572,-1.02454 0.330864,-0.54248 1.275731,-1.55373 2.345868,-2.51067 1.061979,-0.94964 1.348101,-1.15201 2.377533,-1.68162 0.426802,-0.21958 0.97782,-0.53241 1.224486,-0.69518 0.246666,-0.16277 0.634667,-0.35344 0.862225,-0.4237 0.227558,-0.0703 0.93317,-0.32685 1.568027,-0.57019 1.081802,-0.41465 1.530424,-0.52558 2.811949,-0.6953 0.47993,-0.0636 1.29334,-0.22518 2.17836,-0.43282 0.20222,-0.0474 0.67928,-0.0863 1.06012,-0.0863 0.65182,0 1.85592,-0.14605 2.92643,-0.35497 1.19697,-0.23359 1.34497,-0.24667 1.78253,-0.15753 0.32471,0.0661 0.60171,0.21275 1.01811,0.5388 0.31462,0.24636 0.68934,0.52553 0.83271,0.62037 0.14337,0.0948 0.4702,0.33721 0.72629,0.53858 0.2561,0.20138 0.78645,0.58552 1.17856,0.85365 0.63224,0.43233 1.32042,1.05065 3.23889,2.91009 0.29857,0.28937 0.7427,0.81714 0.98697,1.17281 0.24426,0.35567 0.64287,0.89887 0.88579,1.20711 0.5799,0.73584 1.65368,2.70805 1.81778,3.33873 0.0713,0.27399 0.18076,0.57634 0.24327,0.67188 0.0625,0.0955 0.14224,0.30894 0.1772,0.47423 0.0349,0.16528 0.36433,0.86311 0.73195,1.55074 0.36761,0.68762 0.6954,1.34722 0.72841,1.46578 0.033,0.11855 0.18882,0.52596 0.34625,0.90533 0.32824,0.79104 0.43135,1.29406 0.57438,2.80223 0.11114,1.17185 0.0548,4.47284 -0.0872,5.10945 -0.0449,0.20113 -0.13006,0.67608 -0.18935,1.05546 -0.0966,0.61804 -0.30667,1.2009 -0.91686,2.54357 -0.097,0.2134 -0.2399,0.6093 -0.31759,0.87979 -0.0777,0.27049 -0.27029,0.68354 -0.42799,0.91788 -0.15771,0.23435 -0.46423,0.75171 -0.68117,1.14968 -0.21693,0.39798 -0.47816,0.79938 -0.58051,0.892 -0.10235,0.0926 -0.37638,0.5214 -0.60897,0.95285 -0.3111,0.57709 -0.67222,1.05594 -1.36611,1.81147 -1.36937,1.49101 -2.05581,2.16612 -2.592,2.54918 -0.26083,0.18633 -0.72253,0.53124 -1.02602,0.76647 -0.30349,0.23522 -0.69439,0.46607 -0.86868,0.513 -0.17428,0.0469 -0.48858,0.2173 -0.69843,0.3786 -0.52533,0.40379 -1.68813,0.88024 -3.35623,1.37517 -1.73206,0.51392 -2.13594,0.57731 -4.74223,0.74431 -0.68763,0.044 -1.61883,0.12203 -2.06934,0.17328 -0.95117,0.1082 -3.161353,0.0884 -4.526684,-0.0406 z m 6.068602,-1.47233 c 0.536,-0.0745 1.03397,-0.11269 1.10659,-0.0848 0.0726,0.0279 0.75773,-0.0114 1.52244,-0.0873 1.10608,-0.10974 1.505,-0.18584 1.95084,-0.37212 0.30825,-0.1288 0.79325,-0.30444 1.07779,-0.39032 0.28453,-0.0859 0.71133,-0.22743 0.94844,-0.31456 0.23712,-0.0871 0.70272,-0.24278 1.03467,-0.34588 0.3761,-0.11681 0.71729,-0.29203 0.90534,-0.46494 0.16598,-0.15262 0.49356,-0.38671 0.72797,-0.52021 0.69857,-0.39786 1.33915,-0.92762 2.15365,-1.7811 0.42304,-0.44329 1.12701,-1.17458 1.56439,-1.62509 0.44589,-0.45929 0.95386,-1.08895 1.15634,-1.43336 0.19862,-0.33783 0.61045,-0.91983 0.91518,-1.29334 0.30474,-0.3735 0.62892,-0.87309 0.72042,-1.1102 0.28437,-0.737 0.83334,-2.03861 1.1611,-2.75297 0.1725,-0.37599 0.41405,-1.11319 0.53676,-1.63822 0.21182,-0.90631 0.23563,-1.1654 0.38482,-4.18795 0.025,-0.50593 -0.0674,-0.776 -0.2653,-0.776 -0.0874,0 -0.52126,0.1207 -0.9642,0.26823 -0.59439,0.19798 -1.02552,0.28005 -1.646,0.31331 -0.78494,0.0421 -0.84058,0.0572 -0.83935,0.22754 0.002,0.24425 0.0698,0.32866 0.45244,0.56118 0.39554,0.24037 0.49469,0.4125 0.49469,0.8588 0,0.668 -0.21154,0.78204 -0.77137,0.41585 -0.4711,-0.30815 -1.20822,-0.7524 -1.69373,-1.02077 -0.53211,-0.29413 -1.26061,-1.06967 -1.59777,-1.70095 -0.18193,-0.34062 -0.24826,-0.58436 -0.24826,-0.91228 0,-0.31113 -0.0669,-0.57671 -0.21973,-0.87164 -0.43004,-0.83011 -0.55823,-2.27238 -0.2452,-2.7587 0.35866,-0.55721 1.2959,-1.41138 1.80374,-1.64387 0.64778,-0.29657 1.5367,-0.31124 2.34563,-0.0387 0.29427,0.0991 0.62355,0.18147 0.73175,0.18298 0.10819,0.002 0.27203,0.0597 0.36409,0.12934 0.65304,0.49394 0.61004,-0.39011 -0.0785,-1.61471 -0.12521,-0.22266 -0.29779,-0.64946 -0.38353,-0.94844 -0.0857,-0.29898 -0.32791,-0.83461 -0.53814,-1.19027 -0.21024,-0.35567 -0.47492,-0.83861 -0.58817,-1.0732 -0.20134,-0.41704 -0.99255,-1.52984 -1.73986,-2.44703 -1.12939,-1.38613 -3.63613,-3.56544 -4.72849,-4.11085 -0.16598,-0.0829 -0.55398,-0.33577 -0.86223,-0.56199 -1.02565,-0.75273 -1.70741,-0.99394 -2.2186,-0.78497 -0.1313,0.0537 -1.13114,0.15635 -2.22185,0.22816 -1.09072,0.0718 -2.17712,0.16768 -2.41423,0.21303 -0.23712,0.0454 -0.76092,0.1239 -1.16401,0.17453 -0.40309,0.0506 -0.87605,0.16923 -1.05103,0.26355 -0.2235,0.12048 -0.538064,0.18226 -1.057336,0.20766 -0.689177,0.0337 -0.804771,0.0685 -1.708539,0.51473 -0.533143,0.26322 -1.057278,0.47858 -1.164745,0.47858 -0.107466,0 -0.344693,0.0988 -0.527171,0.21956 -0.182478,0.12076 -0.538582,0.29814 -0.791342,0.39418 -0.25276,0.096 -0.67493,0.3292 -0.938155,0.51814 -0.263225,0.18894 -0.699874,0.48686 -0.970329,0.66205 -0.593794,0.38463 -2.430373,2.09613 -2.701148,2.51719 -0.106737,0.16598 -0.309405,0.41818 -0.450373,0.56045 -0.553388,0.55848 -2.284584,2.68856 -2.401594,2.95494 -0.06814,0.15513 -0.242935,0.47552 -0.388431,0.71198 -0.145496,0.23646 -0.380148,0.73034 -0.521449,1.09751 -0.141301,0.36717 -0.415493,0.955 -0.609314,1.3063 -0.337926,0.61247 -0.343877,0.63617 -0.144857,0.57703 0.33201,-0.0987 1.541448,-0.24658 2.104442,-0.25738 0.511096,-0.01 0.524613,-0.004 1.120892,0.49991 0.331957,0.28041 0.637235,0.57141 0.678397,0.64667 0.04116,0.0753 0.163441,0.27264 0.271731,0.43862 0.128165,0.19644 0.233795,0.55837 0.302612,1.03688 l 0.105719,0.7351 -0.280994,0.55824 c -0.154546,0.30703 -0.4699,0.87276 -0.700785,1.25718 -0.230885,0.38442 -0.420155,0.77242 -0.4206,0.86222 -0.0027,0.54999 -1.447373,2.12268 -2.553497,2.77981 -0.552794,0.32841 -0.65254,0.35804 -1.201388,0.35687 -0.724941,-0.002 -1.019358,-0.12922 -1.05744,-0.4586 -0.0371,-0.3209 0.09811,-0.46325 0.483757,-0.50932 0.410606,-0.0491 1.106012,-0.23083 1.453954,-0.38006 0.149434,-0.0641 0.312681,-0.11653 0.36277,-0.11653 0.05009,0 0.199426,-0.1358 0.331859,-0.30177 0.132433,-0.16598 0.300928,-0.30178 0.374433,-0.30178 0.179233,0 0.340579,-0.17156 0.340579,-0.36214 0,-0.0964 -0.06371,-0.1552 -0.168201,-0.1552 -0.26609,0 -1.053246,0.17064 -1.383804,0.29998 -0.49133,0.19224 -0.83201,0.21982 -1.524891,0.12345 -1.060608,-0.14751 -1.151811,-0.0726 -1.320888,1.08546 -0.312727,2.14192 -0.313594,2.63008 -0.0059,3.34779 0.09147,0.21338 0.288203,0.82783 0.437193,1.36543 0.148991,0.53761 0.350616,1.15207 0.448057,1.36547 0.42495,0.93067 0.75936,1.77239 0.75936,1.91135 0,0.34931 0.467002,1.76893 0.647614,1.96866 0.107208,0.11856 0.258737,0.34202 0.33673,0.49658 0.07799,0.15456 0.258293,0.44557 0.400668,0.64667 0.142375,0.2011 0.323742,0.45827 0.403038,0.57147 0.445455,0.63594 1.924035,1.7939 2.867964,2.24606 0.260823,0.12494 0.726425,0.36786 1.03467,0.53983 0.308246,0.17198 0.696247,0.35143 0.862225,0.39879 0.313209,0.0894 1.589752,0.55219 2.41423,0.87531 0.696167,0.27284 1.241845,0.41934 2.112451,0.56716 0.426801,0.0725 0.950603,0.16441 1.164003,0.20432 0.717206,0.13412 4.532343,0.10511 5.594383,-0.0425 z m -4.732154,-3.03158 c -0.412377,-0.0485 -0.458622,-0.11813 -0.348888,-0.52566 0.139775,-0.51908 0.279401,-0.6184 0.869348,-0.6184 0.414141,0 0.524654,0.0309 0.597399,0.16677 0.114599,0.21414 0.114599,0.65944 0,0.87357 -0.09105,0.17013 -0.348965,0.19406 -1.117859,0.10372 z m -0.543729,-2.63045 c -0.37136,-0.16826 -0.40881,-0.21052 -0.360607,-0.40691 0.09152,-0.37289 0.291037,-0.60715 0.517085,-0.60715 0.248125,0 0.866856,-0.13284 1.433493,-0.30777 0.219766,-0.0678 0.539867,-0.12335 0.711336,-0.12335 h 0.311766 v 0.39367 c 0,0.49307 -0.0777,0.63809 -0.497528,0.92905 -0.276511,0.19163 -0.455261,0.23925 -1.018268,0.27133 -0.57163,0.0326 -0.750393,0.008 -1.097277,-0.14887 z m 0.611416,-3.97949 c -0.365862,-0.15974 -0.804581,-0.37267 -0.974931,-0.47317 -0.17035,-0.10051 -0.35601,-0.18265 -0.412577,-0.18253 -0.05657,1.3e-4 -0.327894,0.13593 -0.602947,0.30178 -0.275054,0.16586 -0.591484,0.30156 -0.703178,0.30156 -0.299,0 -0.933972,-0.56392 -1.053439,-0.93556 -0.05563,-0.17307 -0.104134,-0.4976 -0.107778,-0.72119 -0.0053,-0.32412 0.02879,-0.42548 0.168094,-0.50003 0.138172,-0.074 0.224009,-0.0584 0.410347,0.0743 0.610999,0.43507 1.401301,0.41554 2.498136,-0.0617 0.575464,-0.25041 1.031405,-0.38523 2.238921,-0.66205 0.575819,-0.132 0.694539,-0.13236 1.567689,-0.005 0.51958,0.076 1.0457,0.1381 1.16915,0.1381 0.12345,0 0.32818,0.0679 0.45495,0.15089 0.1855,0.12144 0.42266,0.15089 1.21501,0.15089 0.92969,0 0.9918,0.011 1.11541,0.19697 0.22473,0.33817 0.0404,0.53543 -0.98315,1.05205 -0.51544,0.26017 -1.00007,0.52357 -1.07696,0.58534 -0.23131,0.18582 -1.56973,0.60701 -2.37844,0.74847 -1.22223,0.2138 -1.767916,0.17962 -2.544307,-0.15935 z m 1.829207,-1.01061 c 0.30825,-0.0521 0.8023,-0.10104 1.09789,-0.10876 0.37956,-0.01 0.58111,-0.0577 0.68608,-0.16268 0.21834,-0.21834 0.0854,-0.28175 -0.84864,-0.40469 -0.72468,-0.0954 -0.88625,-0.092 -1.250226,0.026 -0.229897,0.0745 -0.569265,0.14683 -0.754152,0.16062 -0.424288,0.0317 -0.61206,0.2731 -0.358698,0.46124 0.199499,0.14814 0.66402,0.15734 1.427746,0.0283 z m -13.606869,-2.03486 c -0.284693,-0.0544 -0.318945,-0.23492 -0.109008,-0.5746 0.191989,-0.31065 0.736185,-0.83886 1.021633,-0.99162 0.225459,-0.12067 0.43248,0.0381 0.500304,0.38372 0.04543,0.23152 -0.0043,0.32645 -0.395492,0.75445 -0.445639,0.4876 -0.526823,0.52175 -1.017437,0.42805 z m 28.511859,-1.06006 c -0.1723,-0.091 -0.47207,-0.34593 -0.66615,-0.56642 -0.54373,-0.61771 -0.568,-1.23647 -0.0536,-1.36559 0.19011,-0.0477 0.28584,0.0139 0.6705,0.43183 0.45684,0.4963 0.91152,1.24965 0.91888,1.52245 0.006,0.20731 -0.45763,0.19545 -0.86966,-0.0223 z m -15.66707,-0.0588 c -0.158322,-0.078 -0.326627,-0.24203 -0.374012,-0.36448 -0.196717,-0.50837 0.124778,-1.73527 0.472243,-1.80219 0.08525,-0.0164 0.250086,0.0325 0.366311,0.10861 0.203765,0.13351 0.211316,0.17349 0.211316,1.11881 0,0.81441 -0.02308,0.9892 -0.136385,1.03268 -0.187553,0.072 -0.212604,0.0676 -0.539473,-0.0934 z m 0.417191,-3.44919 c -0.118556,-0.02 -0.448357,-0.11844 -0.732891,-0.21877 -0.564343,-0.19899 -1.387678,-0.23323 -1.79473,-0.0746 -0.352351,0.13728 -1.478335,0.11808 -1.807828,-0.0308 -0.1526,-0.069 -0.48386,-0.31381 -0.736134,-0.5441 -0.375865,-0.34311 -0.467303,-0.483 -0.506434,-0.77474 -0.07091,-0.52868 0.02417,-0.77155 0.399231,-1.01975 0.275652,-0.18242 0.368413,-0.20531 0.514715,-0.12701 0.185174,0.0991 0.247007,0.26748 0.28656,0.78031 0.03364,0.43612 0.292227,0.40503 0.61381,-0.0738 0.243423,-0.36245 0.264263,-0.37365 0.596319,-0.32055 0.189245,0.0303 0.620423,0.18646 0.958174,0.34712 0.33775,0.16066 0.730492,0.31188 0.872759,0.33604 0.142267,0.0242 0.588469,0.15013 0.991559,0.27991 0.844889,0.27204 1.716889,0.30579 2.388689,0.0925 0.22745,-0.0722 0.7957,-0.2158 1.26279,-0.31906 0.62147,-0.13739 0.88741,-0.23735 0.99156,-0.37271 0.36866,-0.47917 1.059,-1.09031 1.23161,-1.09031 0.10673,0 0.32907,0.14869 0.51571,0.34489 0.33629,0.35352 0.70413,0.45832 0.79327,0.22602 0.0251,-0.0654 0.012,-0.26775 -0.029,-0.44972 -0.0879,-0.38973 -0.008,-0.52165 0.37913,-0.62478 0.57787,-0.154 0.99252,0.25761 0.89082,0.88431 -0.064,0.39435 -0.71529,1.40755 -0.99729,1.55145 -0.36863,0.18811 -1.09166,0.30962 -1.84242,0.30962 -0.55794,0 -0.90438,0.0624 -1.69865,0.30599 -0.54877,0.1683 -1.2468,0.3817 -1.55118,0.47423 -0.51948,0.15791 -1.40915,0.20637 -1.990149,0.10839 z m -2.996232,-13.08768 c -0.1067,-0.0773 -0.194,-0.19393 -0.194,-0.2592 0,-0.1931 0.685269,-0.69163 1.37956,-1.00363 l 0.646668,-0.29059 h 2.788803 c 1.53385,0 2.80103,0.0197 2.81596,0.0438 0.0149,0.0241 0.0536,0.18453 0.0858,0.35658 0.0558,0.29733 0.0383,0.32835 -0.35236,0.62667 l -0.41104,0.31385 -0.65293,-0.0564 c -0.35911,-0.031 -0.78198,-0.10887 -0.93972,-0.173 -0.19423,-0.079 -0.51424,-0.10374 -0.99155,-0.0768 -2.023255,0.11436 -2.258727,0.14525 -2.731004,0.35831 -0.627443,0.28307 -1.188804,0.34541 -1.444227,0.1604 z M 85.628564,272.2595 c 0.331957,-0.049 0.9081,-0.10453 1.280319,-0.1233 0.397221,-0.02 0.757002,-0.0867 0.871023,-0.16142 0.230298,-0.15089 0.776928,-0.77391 1.255595,-1.43104 0.305832,-0.41986 0.343741,-0.52633 0.343741,-0.96539 0,-0.40947 -0.05196,-0.58213 -0.305206,-1.01423 -0.167863,-0.28642 -0.378713,-0.5601 -0.468555,-0.60818 -0.190662,-0.10204 -1.241997,-0.10722 -1.838801,-0.009 -0.227639,0.0374 -0.526769,0.15153 -0.664733,0.25353 -0.137964,0.102 -0.366841,0.18546 -0.508615,0.18546 -0.190198,0 -0.312899,0.0734 -0.46807,0.28022 -0.346595,0.46183 -0.621362,1.10179 -0.786674,1.83223 -0.08586,0.37937 -0.206673,0.90318 -0.268473,1.164 -0.09978,0.42112 -0.09662,0.48629 0.02819,0.582 0.169584,0.13004 0.716161,0.13547 1.530262,0.0152 z m 0.220762,-1.40725 c -0.373594,-0.13499 -0.396887,-0.21168 -0.223151,-0.73475 0.113184,-0.34077 0.193796,-0.44308 0.407925,-0.51772 0.381617,-0.13304 0.53275,-0.11664 0.789951,0.0857 0.257809,0.20279 0.284894,0.43812 0.101063,0.87809 -0.179277,0.42907 -0.470799,0.50731 -1.075788,0.28871 z m 32.619314,0.29131 c 0.31548,-0.14305 0.79615,-0.31714 1.06815,-0.38688 0.36384,-0.0933 0.57121,-0.20936 0.78462,-0.43918 0.27245,-0.29341 0.28662,-0.33842 0.23321,-0.74105 -0.061,-0.45999 -0.6726,-2.25712 -0.83452,-2.45221 -0.0564,-0.068 -0.26682,-0.11882 -0.49688,-0.12 -0.21945,-10e-4 -0.5542,-0.0396 -0.74389,-0.0854 -0.48174,-0.11647 -2.05556,-0.18863 -2.65899,-0.1219 -0.39083,0.0432 -0.57046,0.11452 -0.8031,0.31878 -0.44053,0.38678 -0.7197,0.99359 -0.7197,1.56432 0,0.44577 0.023,0.49643 0.40956,0.90135 0.22525,0.23596 0.56651,0.59701 0.75835,0.80233 0.90013,0.96339 1.96187,1.23204 3.00319,0.75989 z m -1.92931,-1.6617 c -0.17655,-0.0889 -0.22029,-0.18177 -0.24172,-0.51312 -0.0144,-0.22252 0.0134,-0.47856 0.0618,-0.569 0.0995,-0.18596 0.68218,-0.35877 1.20962,-0.35877 h 0.34982 l -0.005,0.36644 c -0.007,0.52202 -0.17594,0.94798 -0.42625,1.07426 -0.27525,0.13888 -0.67293,0.13896 -0.94844,1.9e-4 z"
       transform="translate(-0.66779805,-81.024375)" />
  </g>
</svg>
